# xmcd
#
# Track frame offsets:
#	150
#	3365
#	8392
#	19113
#	27160
#	33327
#	43383
#	56513
#	67605
#	77479
#	86718
#	96779
#	111636
#	125014
#	137919
#	150941
#	161541
#
# Disc length: 2404 seconds
#
# Revision: 3
# Processed by: cddbd v1.5.2PL0 Copyright (c) Steve Scherf et al.
# Submitted via: audiograbber 1.83.01
#
DISCID=c8096211
DTITLE=Bill Bruford's Earthworks - 2019 - From Conception to Birth
DYEAR=2019
DGENRE=Jazz
TTITLE0=Bridge of Inhibition (Demo) - 1986]
TTITLE1=Bridge of Inhibition (Master) - 1986]
TTITLE2=Pressure (Demo) - 1986)
TTITLE3=Pressure (Master) - 1986)
TTITLE4=Hotel Splendour (Demo) - 1990)
TTITLE5=Hotel Splendour (Master) - 1991)
TTITLE6=Lingo (Demo) - 1993)
TTITLE7=Lingo (Master) - 1994)
TTITLE8=If Summer Had Its Ghosts (Demo) - 1996)
TTITLE9=If Summer Had Its Ghosts (Master) - 1997)
TTITLE10=Original Sin (Demo) - 1997)
TTITLE11=Original Sin (Master) - 1997)
TTITLE12=Footloose and Fancy Free (Demo) - 1998)
TTITLE13=Footloose and Fancy Free (Master) - 1998)
TTITLE14=Triplicity (Demo) - 2000)
TTITLE15=Triplicity (Master) - 2000)
TTITLE16=Banyan (Demo) - 2000)
EXTD=
EXTT0=
EXTT1=
EXTT2=
EXTT3=
EXTT4=
EXTT5=
EXTT6=
EXTT7=
EXTT8=
EXTT9=
EXTT10=
EXTT11=
EXTT12=
EXTT13=
EXTT14=
EXTT15=
EXTT16=
PLAYORDER=
